<?xml version="1.0" standalone="no"?><!DOCTYPE svg PUBLIC "-//W3C//DTD SVG 1.1//EN" "http://www.w3.org/Graphics/SVG/1.1/DTD/svg11.dtd"><svg t="1597291201037" class="icon" viewBox="0 0 1024 1024" version="1.1" xmlns="http://www.w3.org/2000/svg" p-id="2117" xmlns:xlink="http://www.w3.org/1999/xlink" width="200" height="200"><defs><style type="text/css"></style></defs><path d="M804.224 86.144c0-19.264-15.616-34.944-34.944-34.944l-734.336 0c-19.264 0-34.944 15.68-34.944 34.944l0 82.048 804.224 0 0-82.048zM738.88 602.432c0 47.072-38.176 85.248-85.248 85.248s-85.248-38.176-85.248-85.248c0-47.072 38.176-85.248 85.248-85.248s85.248 38.176 85.248 85.248zM804.992 264.64l0-62.976-804.224 0 0 665.408c0 18.56 14.656 33.472 32.96 34.56l402.24 0c61.12 44.544 136.192 71.168 217.664 71.168 204.544 0 370.368-165.824 370.368-370.368 0-150.592-89.984-279.936-219.008-337.792zM412.096 298.24l30.528 0c-10.624 7.36-20.8 15.36-30.528 23.744l0-23.744zM63.04 298.24l153.024 0 0 153.024-153.024 0 0-153.024zM216.064 805.056l-153.024 0 0-153.024 153.024 0 0 153.024zM219.136 631.232l-153.024 0 0-153.024 153.024 0 0 153.024zM237.568 805.056l0-153.024 49.408 0c7.488 55.936 27.264 107.904 56.832 153.024l-106.24 0zM284.672 631.232l-44.032 0 0-153.024 64.384 0c-13.824 38.848-21.824 80.576-21.824 124.224 0 9.728 0.768 19.264 1.472 28.8zM390.592 341.76c-31.168 31.424-56.512 68.544-74.88 109.44l-78.144 0 0-152.96 153.024 0 0 43.52zM899.136 638.4l-63.36 12.864c-4.288 16.064-10.688 31.296-18.816 45.376l35.712 53.888-50.944 50.944-53.888-35.712c-14.08 8.128-29.312 14.528-45.376 18.816l-12.864 63.36-72 0-12.864-63.36c-16.064-4.288-31.296-10.688-45.376-18.816l-53.888 35.712-50.944-50.944 35.712-53.888c-8.128-14.08-14.528-29.312-18.816-45.376l-63.36-12.864 0-72 63.36-12.864c4.352-16.064 10.688-31.296 18.816-45.312l-35.712-53.952 50.944-50.944 53.888 35.776c14.08-8.128 29.312-14.464 45.376-18.816l12.864-63.36 72 0 12.864 63.36c16.064 4.288 31.296 10.688 45.376 18.816l53.888-35.712 50.944 50.944-35.712 53.824c8.128 14.08 14.528 29.312 18.816 45.376l63.36 12.864 0 72z" p-id="2118"></path></svg>