<?xml version="1.0" standalone="no"?><!DOCTYPE svg PUBLIC "-//W3C//DTD SVG 1.1//EN" "http://www.w3.org/Graphics/SVG/1.1/DTD/svg11.dtd"><svg t="1576683821634" class="icon" viewBox="0 0 1024 1024" version="1.1" xmlns="http://www.w3.org/2000/svg" p-id="8879" xmlns:xlink="http://www.w3.org/1999/xlink" width="32" height="32"><defs><style type="text/css"></style></defs><path d="M994.511897 859.991646 792.90318 658.380882l26.895557-26.919093-26.878161-26.880207-80.617086 80.637552L577.852312 550.789445 739.393475 389.228839c21.517059 7.66047 44.004213 11.537777 67.080791 11.537777 53.243645 0 103.314017-20.738323 140.974755-58.357106 58.110489-58.149375 74.589812-144.546094 41.99137-220.126466l-11.084453-25.738198-86.643336 86.643336-69.764923 0.951675 0.933255-66.532299L911.196353 29.310559 885.53388 18.188244c-25.188682-10.892071-51.93279-16.423041-79.498612-16.423041-53.262064 0-103.31197 20.739347-140.912333 58.376549-55.126528 55.089689-72.843028 135.573745-46.76407 208.227462L456.877053 429.852048 228.349243 201.3621l26.897603-26.879184L107.43129 26.66736 26.718013 107.266026l147.872862 147.853419 26.859741-26.879184 228.528833 228.489948L268.495592 618.21509c-21.574365-7.717775-44.156686-11.615549-67.310012-11.615549-53.244668 0-103.31504 20.75572-140.934846 58.397015C2.024611 723.183793-14.436292 809.712519 18.335089 885.386012l11.120268 25.662473 88.316441-88.314395 66.51388-0.895393-0.949628 69.764923-86.644359 86.643336 25.737174 11.062963c25.111934 10.836813 51.761897 16.328897 79.192643 16.328897 53.264111 0 103.295598-20.716834 140.915403-58.358129 55.050804-55.048757 72.76628-135.438669 46.858214-207.975728l161.578002-161.579025 134.453225 134.394896-80.675414 80.675414 26.878161 26.878161 26.880207-26.878161 201.591321 201.591321c17.943674 17.965164 41.837874 27.848255 67.216891 27.848255 25.37697 0 49.252751-9.883091 67.216891-27.848255C1031.583211 957.335694 1031.562744 897.04147 994.511897 859.991646L994.511897 859.991646zM80.515267 107.266026l26.897603-26.841322 94.057189 94.057189-26.878161 26.879184L80.515267 107.266026 80.515267 107.266026zM349.684706 742.191706c26.365484 61.189617 13.002129 131.162272-34.045397 178.209798-30.452569 30.454616-70.924329 47.218418-114.036219 47.218418-12.374842 0-24.559349-1.367137-36.420491-4.124947l55.924707-55.94415 1.692548-124.263142-121.012098 1.638313-57.731866 57.729819c-12.698207-53.833069 2.889817-110.633726 43.074028-150.782122 30.472012-30.491455 70.962192-47.258327 114.055662-47.258327 22.336728 0 43.967374 4.489244 64.383356 13.326517l11.862165 5.134951 385.772111-385.754714-5.132904-11.862165c-26.536376-61.284785-13.19144-131.297348 33.930787-178.419576 30.453592-30.472012 70.943772-47.238884 114.035196-47.238884 12.491499 0 24.771173 1.408069 36.746926 4.182252l-57.69298 57.69298-1.673106 121.031541 124.264165-1.692548 55.982012-55.962569c12.543687 53.738925-3.061732 110.443391-43.11496 150.514015-30.491455 30.453592-70.979588 47.219441-114.092501 47.219441-22.258956 0-43.852764-4.448312-64.212464-13.210883l-11.841699-5.113461L344.570221 730.348983 349.684706 742.191706 349.684706 742.191706zM967.654202 967.506335c-10.778484 10.761088-25.112957 16.709567-40.33873 16.709567-15.243169 0-29.5582-5.948479-40.336684-16.709567l-201.611787-201.591321 80.637552-80.637552 201.611787 201.591321C989.877343 909.111366 989.877343 945.265798 967.654202 967.506335L967.654202 967.506335z" p-id="8880"></path></svg>